<?xml version="1.0" encoding="UTF-8"?>
<svg id="Layer_1" data-name="Layer 1" xmlns="http://www.w3.org/2000/svg" viewBox="0 0 496.94 79.9">
  <defs>
    <style>
      .cls-1 {
        fill: #2980b9;
      }
    </style>
  </defs>
  <path d="M43,46.73c3.15-1.39,5.65-3.41,7.5-6.06,3-4.28,4.5-9.44,4.5-15.47,0-4.03-.65-7.69-1.95-10.97-1.3-3.29-3.32-6.01-6.07-8.18-2.75-2.17-6.28-3.58-10.58-4.25-.93-.17-1.99-.28-3.17-.32-1.19-.06-2.13-.08-2.83-.08H0v72h.47l13.13-2.54v-21.86h15.17l8.39,17.3,14.05-2.72-8.21-16.84ZM40.73,29.32c-.39,1.46-1.08,2.77-2.08,3.96-1,1.18-2.42,2.02-4.25,2.52-.7.2-1.47.33-2.3.4s-1.6.1-2.3.1H13.6V14.1h16.2c.7,0,1.47.03,2.3.1s1.6.2,2.3.4c1.83.5,3.25,1.34,4.25,2.52,1,1.19,1.69,2.5,2.08,3.95.38,1.45.57,2.83.57,4.13s-.19,2.67-.57,4.12Z"/>
  <path d="M77.3,58.3c0-.9.19-1.72.58-2.45.38-.73.98-1.41,1.8-2.03.81-.61,1.89-1.19,3.22-1.72,1.17-.43,2.52-.83,4.05-1.2,1.53-.37,3.55-.78,6.05-1.23,1.61-.28,3.54-.62,5.78-.99-.03.94-.08,2-.15,3.19-.06.92-.18,1.78-.37,2.59l14.04-2.72v-11.34c0-2.47-.1-4.7-.3-6.7-.2-2-.83-4-1.9-6-1.9-3.6-4.7-6.13-8.4-7.6-3.7-1.47-7.93-2.2-12.7-2.2-6.5,0-11.63,1.4-15.4,4.2-3.77,2.8-6.33,6.43-7.7,10.9l12.3,3.9c.87-2.47,2.38-4.18,4.55-5.15,2.17-.97,4.25-1.45,6.25-1.45,3.6,0,6.17.75,7.7,2.25,1.2,1.18,1.93,2.88,2.19,5.1-2.3.35-4.48.67-6.54.97-3.5.52-6.63,1.06-9.4,1.63-2.77.57-5.15,1.22-7.15,1.95-2.9,1.07-5.21,2.39-6.92,3.97-1.72,1.59-2.96,3.41-3.73,5.48s-1.15,4.35-1.15,6.85c0,.88.07,1.73.18,2.56l13.13-2.54c0-.07-.01-.14-.01-.22Z"/>
  <path d="M175.7,38.8c-.13-1.97-.52-4.14-1.15-6.52-.63-2.39-1.69-4.68-3.17-6.88-1.49-2.2-3.56-4.02-6.23-5.45s-6.12-2.15-10.35-2.15c-5.3,0-9.69,1.15-13.17,3.45-1.63,1.08-3.08,2.31-4.33,3.71v-5.56h-12.1v29.85l13.8-2.67v-.57c0-3.37.38-6.07,1.13-8.1.75-2.03,1.7-3.58,2.87-4.62,1.17-1.05,2.42-1.76,3.75-2.13,1.33-.37,2.58-.55,3.75-.55,2.9,0,5.14.65,6.73,1.95,1.58,1.3,2.72,2.92,3.42,4.85.58,1.59.95,3.18,1.14,4.76l13.95-2.7c-.01-.22-.03-.42-.04-.66Z"/>
  <polygon points="202.7 1.4 188.9 1.4 188.85 36.92 202.7 34.24 202.7 1.4"/>
  <polygon points="237.8 19.4 221 19.4 211.8 32.48 231.05 28.75 237.8 19.4"/>
  <g>
    <polygon points="13.6 78.4 13.6 75.86 .47 78.4 13.6 78.4"/>
    <polygon points="37.16 71.3 40.6 78.4 56 78.4 51.21 68.57 37.16 71.3"/>
    <path d="M98.26,59.46c-.21.91-.49,1.76-.86,2.54-.37.77-1.06,1.72-2.07,2.85-1.02,1.13-2.39,2.14-4.1,3.02-1.72.89-3.83,1.33-6.33,1.33-1.57,0-2.92-.23-4.05-.7-1.13-.47-2.01-1.14-2.62-2.02-.58-.84-.88-1.83-.92-2.96l-13.13,2.54c.29,2.02.91,3.91,1.9,5.67,1.38,2.48,3.41,4.46,6.1,5.94,2.68,1.49,5.95,2.23,9.82,2.23,4.67,0,8.53-.81,11.58-2.42,2.4-1.28,4.67-3.18,6.82-5.7v6.62h11.9v-21.66l-14.04,2.72Z"/>
    <polygon points="125.2 78.4 139 78.4 139 51.57 125.2 54.25 125.2 78.4"/>
    <path d="M161.79,47.16c.04.34.08.67.11,1.01.13,1.92.2,3.5.2,4.73v25.5h13.8v-30.3c0-.79-.06-2.02-.16-3.64l-13.95,2.7Z"/>
    <polygon points="231.05 33.75 211.8 37.48 202.7 50.4 202.7 39.24 188.85 41.92 188.8 78.4 202.7 78.4 202.7 52.4 221.4 78.4 239.1 78.4 218.3 51.4 231.05 33.75"/>
    <path class="cls-1" d="M318.17,48c-1.35-2.37-3.07-4.27-5.15-5.72-2.08-1.46-4.26-2.59-6.52-3.41-2.27-.81-4.34-1.47-6.2-1.97l-12.5-3.4c-1.54-.4-3.04-.9-4.5-1.5-1.47-.6-2.69-1.39-3.65-2.38-.97-.98-1.45-2.25-1.45-3.82,0-.42.04-.82.11-1.2l-14.39,2.79c.09,3.04.65,5.59,1.7,7.64,1.15,2.26,2.59,4.06,4.33,5.43,1.73,1.37,3.52,2.42,5.37,3.15,1.85.73,3.48,1.3,4.88,1.7l18.7,5.5c1.4.43,2.55.92,3.47,1.45.92.53,1.63,1.1,2.13,1.7s.85,1.24,1.07,1.92c.22.69.33,1.4.33,2.13,0,2-.68,3.68-2.03,5.05-1.35,1.37-3.07,2.4-5.17,3.1-2.1.7-4.27,1.05-6.5,1.05-4,0-7.57-1.12-10.7-3.35-3.14-2.23-5.2-5.42-6.2-9.55l-14.2,2.1c.73,4.87,2.47,9.06,5.22,12.58,2.75,3.51,6.27,6.21,10.55,8.09,4.29,1.89,9.09,2.83,14.43,2.83,3.66,0,7.22-.47,10.67-1.4s6.54-2.34,9.28-4.22c2.73-1.89,4.91-4.27,6.52-7.16,1.62-2.88,2.43-6.25,2.43-10.12,0-3.63-.68-6.63-2.03-9Z"/>
  </g>
  <path class="cls-1" d="M279.97,16.4c1.19-1.23,2.72-2.17,4.6-2.83,1.88-.65,3.89-.94,6.03-.87,2.16.07,4.24.52,6.22,1.35.94.39,1.82.88,2.64,1.45l16.01-3.1-16.01,3.1c.9.63,1.74,1.36,2.49,2.2,1.43,1.6,2.41,3.57,2.95,5.9l14.7-2.5c-1.17-4.5-3.07-8.31-5.7-11.43-2.64-3.11-5.9-5.49-9.8-7.12S295.76.07,290.8,0c-4.94-.03-9.44.73-13.5,2.3-4.07,1.57-7.32,3.95-9.75,7.15-2.44,3.2-3.65,7.22-3.65,12.05,0,.3,0,.59.02.88l14.39-2.79c.22-1.2.77-2.27,1.66-3.2Z"/>
  <g>
    <rect class="cls-1" x="332.2" y="4.9" width="13.6" height="73.5"/>
    <rect class="cls-1" x="361.8" y="4.9" width="13.6" height="12"/>
    <rect class="cls-1" x="361.8" y="24.4" width="13.6" height="54"/>
    <path class="cls-1" d="M424.79,59.1l13.9,2.9c-1.53,5.73-4.43,10.15-8.7,13.25-4.26,3.1-9.53,4.65-15.8,4.65-5.6,0-10.4-1.25-14.4-3.75s-7.06-5.9-9.2-10.2c-2.13-4.3-3.2-9.15-3.2-14.55s1.11-10.35,3.33-14.65c2.21-4.3,5.34-7.68,9.37-10.15,4.04-2.47,8.8-3.7,14.3-3.7,6.37,0,11.71,1.61,16.03,4.83,4.32,3.21,7.07,7.6,8.27,13.17l-13.6,3.6c-.8-2.8-2.19-4.98-4.17-6.55-1.99-1.57-4.23-2.35-6.73-2.35-2.86,0-5.21.69-7.05,2.07-1.83,1.39-3.18,3.27-4.05,5.65-.86,2.39-1.3,5.08-1.3,8.08,0,4.7,1.05,8.51,3.13,11.42,2.08,2.92,5.17,4.38,9.27,4.38,3.07,0,5.4-.7,7-2.1,1.6-1.4,2.8-3.4,3.6-6Z"/>
    <path class="cls-1" d="M496.74,55.2c.57-6.53-.1-12.22-2-17.05-1.9-4.83-4.83-8.58-8.8-11.25-3.96-2.67-8.78-4-14.45-4-5.33,0-10.05,1.21-14.15,3.62-4.1,2.42-7.31,5.81-9.65,10.18-2.33,4.37-3.5,9.5-3.5,15.4,0,5.4,1.2,10.19,3.58,14.38,2.38,4.18,5.68,7.46,9.9,9.84,4.22,2.39,9.09,3.58,14.62,3.58,5.2,0,10-1.37,14.38-4.1,4.38-2.73,7.59-6.57,9.62-11.5l-13.6-3.9c-1,2.2-2.45,3.88-4.35,5.05s-4.18,1.75-6.85,1.75c-4.23,0-7.44-1.38-9.62-4.13-1.6-2.01-2.62-4.63-3.04-7.87h37.91ZM459.19,45.1c.53-2.5,1.42-4.56,2.68-6.18,2.18-2.81,5.59-4.22,10.22-4.22,3.97,0,6.83,1.21,8.58,3.62,1.15,1.59,1.92,3.85,2.31,6.78h-23.79Z"/>
  </g>
</svg>