<?xml version="1.0" encoding="UTF-8"?>
<svg id="Layer_1" data-name="Layer 1" xmlns="http://www.w3.org/2000/svg" viewBox="0 0 365.4 151.71">
  <defs>
    <style>
      .cls-1 {
        fill: #2980b9;
      }

      .cls-2 {
        fill: #151b26;
      }

      .cls-3 {
        fill: #1abc9c;
      }
    </style>
  </defs>
  <polygon class="cls-1" points="133.94 79.5 133.9 4.21 5.4 67.6 48.93 94.65 90.42 74.18 90.45 120.45 133.97 147.5 133.95 102.44 115.61 92.59 133.94 79.5"/>
  <polygon class="cls-3" points="25.72 98.27 25.74 134.17 57.93 118.29 25.72 98.27"/>
  <g>
    <path class="cls-2" d="M193.84,51.47s.09-.04.12-.05c3.49-1.53,6.19-3.77,8.1-6.66,1.9-2.91,2.86-6.38,2.86-10.38,0-6.13-2.08-10.92-6.26-14.39-4.15-3.48-9.99-5.22-17.51-5.22h-23.07v54.01h12.5v-15.05h10.88c.2,0,.4,0,.59-.01l10.37,15.06h13.5l-12.08-17.32ZM189.41,41.28c-1.91,1.67-4.79,2.51-8.65,2.51h-10.18v-18.83h10.18c3.86,0,6.74.82,8.65,2.47,1.9,1.65,2.84,3.97,2.84,6.95s-.95,5.23-2.84,6.9Z"/>
    <path class="cls-2" d="M245.04,31.14c-3.51-2.98-8.41-4.47-14.74-4.47-3.29,0-6.54.44-9.72,1.31-3.19.87-5.91,2.11-8.18,3.69l4.33,8.41c1.48-1.17,3.29-2.12,5.44-2.81,2.13-.7,4.3-1.05,6.51-1.05,3.24,0,5.64.72,7.21,2.16,1.57,1.45,2.36,3.46,2.36,6.03h-9.57c-4.22,0-7.64.52-10.26,1.57-2.63,1.06-4.54,2.52-5.75,4.37-1.21,1.85-1.81,4.01-1.81,6.48s.61,4.5,1.85,6.41c1.24,1.9,3.01,3.41,5.32,4.5,2.32,1.11,5.1,1.66,8.35,1.66,3.64,0,6.63-.7,8.95-2.08,1.57-.94,2.81-2.18,3.71-3.72v5.19h11.25v-23.69c0-6.33-1.75-10.98-5.24-13.96ZM234.77,59.87c-1.58.96-3.39,1.43-5.39,1.43-2.11,0-3.77-.45-4.98-1.35-1.21-.9-1.82-2.12-1.82-3.67,0-1.39.54-2.55,1.58-3.47,1.06-.92,2.99-1.4,5.83-1.4h8.26v4.24c-.72,1.86-1.88,3.26-3.48,4.2Z"/>
    <path class="cls-2" d="M303.59,45.02v23.77h-12.03v-21.92c0-3.33-.74-5.8-2.21-7.4-1.46-1.6-3.53-2.4-6.2-2.4-1.91,0-3.62.4-5.13,1.2-1.52.8-2.71,2.02-3.56,3.67s-1.27,3.76-1.27,6.33v20.52h-12.03V27.28h11.49v4.94c1.17-1.34,2.6-2.45,4.24-3.32,2.77-1.5,5.94-2.23,9.48-2.23,3.29,0,6.24.65,8.83,1.96,2.6,1.31,4.64,3.32,6.14,6.01,1.48,2.71,2.23,6.16,2.23,10.38Z"/>
    <polygon class="cls-2" points="360 68.79 345.41 68.79 332.33 52.53 326.51 58.26 326.51 68.79 314.47 68.79 314.47 11.55 326.51 11.55 326.51 43.96 344.1 27.28 358.45 27.28 341.16 44.85 360 68.79"/>
  </g>
  <g>
    <path class="cls-2" d="M180.07,140.17c-4.32,0-8.46-.58-12.42-1.74-3.96-1.16-7.15-2.66-9.57-4.51l4.24-9.41c2.32,1.65,5.05,3,8.22,4.05,3.16,1.05,6.36,1.58,9.6,1.58,2.47,0,4.46-.24,5.98-.73,1.51-.49,2.63-1.17,3.35-2.05.72-.87,1.08-1.88,1.08-3.01,0-1.44-.57-2.58-1.7-3.43-1.13-.85-2.62-1.54-4.48-2.08s-3.89-1.05-6.13-1.54c-2.24-.49-4.47-1.09-6.71-1.81-2.24-.72-4.28-1.65-6.13-2.78-1.85-1.13-3.35-2.62-4.51-4.48-1.16-1.85-1.74-4.22-1.74-7.1,0-3.09.84-5.9,2.51-8.45,1.68-2.55,4.19-4.58,7.57-6.09,3.37-1.52,7.6-2.28,12.69-2.28,3.4,0,6.74.4,10.03,1.2,3.3.8,6.2,1.99,8.72,3.59l-3.86,9.49c-2.52-1.44-5.04-2.51-7.57-3.2-2.52-.7-4.99-1.04-7.4-1.04s-4.4.28-5.94.85c-1.54.57-2.65,1.3-3.32,2.2-.67.9-1,1.94-1,3.12,0,1.39.57,2.51,1.7,3.36s2.62,1.53,4.48,2.04c1.85.51,3.89,1.03,6.13,1.54,2.24.51,4.48,1.11,6.71,1.77,2.24.67,4.28,1.57,6.13,2.7,1.85,1.13,3.36,2.62,4.51,4.48,1.16,1.85,1.74,4.19,1.74,7.02,0,3.04-.85,5.81-2.55,8.33-1.7,2.52-4.23,4.55-7.6,6.1-3.37,1.54-7.63,2.31-12.77,2.31Z"/>
    <path class="cls-2" d="M210.71,139.24v-57.25h12.04v57.25h-12.04Z"/>
    <path class="cls-2" d="M239.95,91.95c-2.21,0-4.01-.64-5.4-1.93-1.39-1.29-2.08-2.88-2.08-4.78s.7-3.5,2.08-4.78c1.39-1.28,3.19-1.93,5.4-1.93s4.01.6,5.4,1.81c1.39,1.21,2.08,2.77,2.08,4.67,0,2.01-.68,3.66-2.04,4.98-1.37,1.31-3.18,1.97-5.44,1.97ZM233.93,139.24v-41.51h12.04v41.51h-12.04Z"/>
    <path class="cls-2" d="M277.22,139.86c-4.48,0-8.46-.91-11.96-2.74-3.5-1.82-6.23-4.36-8.22-7.6-1.98-3.24-2.97-6.92-2.97-11.03s.99-7.85,2.97-11.07c1.98-3.21,4.72-5.73,8.22-7.56,3.5-1.82,7.48-2.74,11.96-2.74s8.17.91,11.41,2.74c3.24,1.83,5.63,4.44,7.18,7.83l-9.34,5.02c-1.08-1.96-2.43-3.39-4.05-4.32s-3.38-1.39-5.29-1.39c-2.05,0-3.91.46-5.55,1.39-1.65.93-2.94,2.24-3.9,3.93-.95,1.7-1.43,3.75-1.43,6.17s.47,4.47,1.43,6.17c.95,1.7,2.25,3.01,3.9,3.94,1.65.92,3.5,1.39,5.55,1.39,1.9,0,3.67-.45,5.29-1.35s2.97-2.35,4.05-4.36l9.34,5.09c-1.54,3.34-3.94,5.93-7.18,7.75-3.24,1.83-7.04,2.74-11.41,2.74Z"/>
    <path class="cls-2" d="M340.01,107.11c-1.9-3.22-4.48-5.69-7.75-7.41s-6.94-2.58-10.99-2.58-8,.91-11.34,2.74c-3.34,1.82-5.99,4.34-7.91,7.55-1.93,3.22-2.89,6.91-2.89,11.08s.97,7.77,2.93,10.99c1.95,3.22,4.72,5.75,8.3,7.6,3.57,1.86,7.72,2.78,12.46,2.78,3.76,0,7.06-.59,9.94-1.73,2.88-1.16,5.27-2.82,7.17-4.98l-6.4-6.95c-1.4,1.34-2.92,2.35-4.59,3.01-1.67.67-3.62,1.01-5.83,1.01-2.46,0-4.62-.45-6.44-1.35-1.82-.91-3.24-2.22-4.24-3.94-.55-.94-.95-1.95-1.19-3.04h31.39c.05-.51.1-1.07.15-1.66.05-.59.07-1.12.07-1.58,0-4.47-.95-8.32-2.86-11.53ZM311.1,114.86c.19-1.3.57-2.46,1.14-3.51.87-1.62,2.1-2.88,3.67-3.78,1.57-.9,3.38-1.35,5.44-1.35s3.86.45,5.4,1.35c1.53.9,2.74,2.15,3.62,3.74.57,1.06.97,2.23,1.16,3.54h-20.42Z"/>
  </g>
</svg>