<?xml version="1.0" encoding="UTF-8"?>
<svg id="Layer_1" data-name="Layer 1" xmlns="http://www.w3.org/2000/svg" viewBox="0 0 366 54">
  <defs>
    <style>
      .cls-1 {
        fill: #2980b9;
      }
    </style>
  </defs>
  <g>
    <path d="M35.5,33.71c2.27-1,4.07-2.45,5.4-4.35,2.16-3.09,3.24-6.8,3.24-11.15,0-2.9-.47-5.53-1.4-7.9-.94-2.36-2.4-4.32-4.38-5.88-1.98-1.56-4.52-2.58-7.61-3.06-.67-.12-1.44-.2-2.29-.24-.85-.03-1.53-.05-2.03-.05H4.54v51.84h9.79v-17.57h10.93l8.51,17.57h11.09l-9.36-19.21ZM14.33,10.22h11.67c.5,0,1.05.03,1.65.07.6.05,1.15.15,1.66.29,1.32.36,2.34.97,3.06,1.82.72.85,1.22,1.8,1.49,2.85.28,1.04.42,2.03.42,2.96s-.14,1.93-.42,2.97c-.27,1.05-.77,2-1.49,2.85-.72.85-1.74,1.46-3.06,1.82-.51.14-1.06.24-1.66.28-.6.05-1.15.08-1.65.08h-11.67v-15.99Z"/>
    <path d="M85.18,24.33c-.14-1.44-.6-2.87-1.37-4.31-1.37-2.6-3.38-4.42-6.05-5.48-2.66-1.05-5.71-1.58-9.14-1.58-4.68,0-8.38,1.01-11.09,3.02-2.71,2.02-4.56,4.64-5.54,7.85l8.85,2.81c.63-1.78,1.72-3.01,3.28-3.71,1.56-.69,3.06-1.04,4.5-1.04,2.59,0,4.44.54,5.54,1.62.87.85,1.4,2.07,1.58,3.67-1.66.25-3.23.48-4.71.7-2.52.37-4.77.76-6.77,1.17-1.99.41-3.7.88-5.14,1.41-2.09.76-3.75,1.72-4.99,2.86s-2.13,2.45-2.68,3.94-.83,3.13-.83,4.93c0,2.16.5,4.14,1.49,5.92,1,1.79,2.46,3.22,4.4,4.29,1.93,1.06,4.29,1.6,7.07,1.6,3.36,0,6.14-.58,8.33-1.75,1.74-.92,3.38-2.29,4.92-4.12v4.79h8.57v-23.76c0-1.78-.08-3.39-.22-4.83ZM75.55,37.42c-.08,1.4-.38,2.63-.88,3.69-.27.55-.76,1.24-1.5,2.05-.73.82-1.71,1.54-2.95,2.18-1.23.64-2.75.95-4.55.95-1.13,0-2.1-.16-2.92-.5-.81-.33-1.44-.82-1.89-1.46-.44-.63-.66-1.39-.66-2.28,0-.65.13-1.24.41-1.77.28-.52.71-1.01,1.3-1.46.58-.44,1.36-.85,2.32-1.24.84-.31,1.81-.6,2.91-.86,1.11-.26,2.56-.56,4.36-.88,1.16-.21,2.54-.45,4.16-.72-.02.68-.06,1.45-.11,2.3Z"/>
    <path d="M131.19,31.1v21.82h-9.94v-18.36c0-.89-.05-2.02-.14-3.4-.1-1.38-.4-2.77-.9-4.16-.51-1.39-1.33-2.56-2.47-3.49-1.14-.94-2.75-1.41-4.84-1.41-.84,0-1.74.14-2.7.4-.96.26-1.86.77-2.7,1.53-.84.76-1.53,1.87-2.07,3.33-.54,1.46-.81,3.41-.81,5.83v19.73h-9.94V14.04h8.72v4.01c.89-1.01,1.93-1.9,3.11-2.68,2.51-1.66,5.67-2.48,9.49-2.48,3.04,0,5.53.51,7.45,1.54,1.92,1.04,3.41,2.34,4.48,3.93,1.07,1.58,1.83,3.23,2.29,4.95.45,1.71.73,3.28.82,4.7.1,1.41.15,2.45.15,3.09Z"/>
    <polygon points="176.69 52.92 163.95 52.92 150.48 34.2 150.48 52.92 140.47 52.92 140.55 1.08 150.48 1.08 150.48 32.76 163.66 14.04 175.75 14.04 161.71 33.48 176.69 52.92"/>
  </g>
  <g>
    <path d="M214.27,54c-3.84,0-7.3-.68-10.39-2.03s-5.62-3.3-7.6-5.83c-1.98-2.53-3.23-5.55-3.76-9.05l10.22-1.51c.72,2.98,2.21,5.27,4.46,6.88s4.82,2.41,7.71,2.41c1.61,0,3.17-.25,4.68-.76,1.51-.5,2.75-1.25,3.73-2.23.97-.98,1.46-2.2,1.46-3.64,0-.53-.08-1.04-.23-1.53-.16-.49-.41-.95-.77-1.39s-.87-.84-1.53-1.22c-.66-.38-1.49-.73-2.5-1.04l-13.46-3.96c-1.01-.29-2.18-.7-3.51-1.22-1.33-.53-2.62-1.28-3.87-2.27-1.25-.98-2.29-2.29-3.11-3.91s-1.24-3.67-1.24-6.14c0-3.48.88-6.37,2.63-8.68,1.75-2.3,4.09-4.02,7.02-5.15,2.93-1.13,6.17-1.68,9.72-1.66,3.58.05,6.77.66,9.58,1.84,2.81,1.18,5.16,2.89,7.06,5.13,1.9,2.24,3.26,4.99,4.1,8.23l-10.58,1.8c-.38-1.68-1.09-3.1-2.12-4.25-1.03-1.15-2.26-2.03-3.69-2.63-1.43-.6-2.92-.92-4.48-.97-1.54-.05-2.98.16-4.34.63-1.36.47-2.46,1.15-3.31,2.03-.85.89-1.28,1.94-1.28,3.17,0,1.13.35,2.05,1.04,2.75.7.71,1.57,1.28,2.63,1.71,1.06.43,2.14.79,3.24,1.08l9,2.45c1.34.36,2.83.83,4.46,1.42,1.63.59,3.2,1.4,4.7,2.45,1.5,1.04,2.74,2.42,3.71,4.12.97,1.7,1.46,3.86,1.46,6.48,0,2.78-.58,5.21-1.75,7.29-1.17,2.08-2.73,3.79-4.7,5.15-1.97,1.36-4.19,2.37-6.68,3.04-2.48.67-5.05,1.01-7.69,1.01Z"/>
    <path d="M243.72,52.92V0h9.79v52.92h-9.79Z"/>
    <path d="M265.03,8.64V0h9.79v8.64h-9.79ZM265.03,52.92V14.04h9.79v38.88h-9.79Z"/>
    <path d="M302.76,54c-4.03,0-7.49-.9-10.37-2.7-2.88-1.8-5.09-4.25-6.62-7.34-1.54-3.1-2.3-6.59-2.3-10.48s.8-7.45,2.39-10.55c1.6-3.1,3.85-5.53,6.75-7.31,2.9-1.78,6.34-2.66,10.3-2.66,4.58,0,8.43,1.16,11.54,3.47,3.11,2.32,5.09,5.48,5.96,9.49l-9.79,2.59c-.58-2.02-1.58-3.59-3.01-4.72-1.43-1.13-3.04-1.69-4.84-1.69-2.06,0-3.76.5-5.08,1.49-1.32,1-2.29,2.35-2.92,4.07-.62,1.72-.94,3.65-.94,5.81,0,3.38.75,6.13,2.25,8.23s3.73,3.15,6.68,3.15c2.21,0,3.89-.5,5.04-1.51,1.15-1.01,2.02-2.45,2.59-4.32l10.01,2.09c-1.1,4.13-3.19,7.31-6.26,9.54-3.07,2.23-6.86,3.35-11.38,3.35Z"/>
    <path d="M344.59,54c-3.98,0-7.49-.86-10.53-2.57s-5.41-4.08-7.13-7.09c-1.72-3.01-2.57-6.46-2.57-10.35,0-4.25.84-7.94,2.52-11.09,1.68-3.14,4-5.59,6.95-7.33,2.95-1.74,6.35-2.61,10.19-2.61,4.08,0,7.55.96,10.4,2.88,2.86,1.92,4.97,4.62,6.34,8.1,1.37,3.48,1.85,7.57,1.44,12.28h-9.68v-3.6c0-3.96-.63-6.81-1.89-8.55-1.26-1.74-3.32-2.61-6.17-2.61-3.34,0-5.79,1.01-7.36,3.04-1.57,2.03-2.36,5.02-2.36,8.98,0,3.62.79,6.43,2.36,8.41,1.57,1.98,3.88,2.97,6.93,2.97,1.92,0,3.56-.42,4.93-1.26,1.37-.84,2.41-2.05,3.13-3.64l9.79,2.81c-1.46,3.55-3.77,6.31-6.93,8.28-3.16,1.97-6.61,2.95-10.35,2.95ZM331.7,36.22v-7.27h25.78v7.27h-25.78Z"/>
  </g>
  <rect class="cls-1" y="26.58" width="366" height="3.82"/>
</svg>